<?xml version="1.0" encoding="UTF-8"?>
<svg xmlns="http://www.w3.org/2000/svg" width="16" height="16" viewBox="0 0 16 16">
  <style>
    #utilities-grayscale path { fill: #6b6b6b; }
    #utilities-inverted path { fill: #ffffff; }
  </style>
  <defs>
    <path id="gear" d="M9.1 1.3l.3 1.4c.4.1.7.3 1 .4l1.2-.8 1.1 1.1-.8 1.2c.2.3.3.7.4 1l1.4.3v1.6l-1.4.3c-.1.4-.3.7-.4 1l.8 1.2-1.1 1.1-1.2-.8c-.3.2-.7.3-1 .4l-.3 1.4H7.5l-.3-1.4c-.4-.1-.7-.3-1-.4l-1.2.8-1.1-1.1.8-1.2c-.2-.3-.3-.7-.4-1l-1.4-.3V5.9l1.4-.3c.1-.4.3-.7.4-1l-.8-1.2L5 2.3l1.2.8c.3-.2.7-.3 1-.4l.3-1.4h1.6zM8.3 5.2a1.5 1.5 0 100 3 1.5 1.5 0 000-3z"/>
  </defs>
  <g id="utilities-grayscale"><use href="#gear"/></g>
  <g id="utilities-inverted"><use href="#gear"/></g>
</svg>
